<?xml version="1.0" encoding="UTF-8" standalone="no"?>
<!-- Created with Inkscape (http://www.inkscape.org/) -->

<svg
   xmlns:dc="http://purl.org/dc/elements/1.1/"
   xmlns:cc="http://creativecommons.org/ns#"
   xmlns:rdf="http://www.w3.org/1999/02/22-rdf-syntax-ns#"
   xmlns:svg="http://www.w3.org/2000/svg"
   xmlns="http://www.w3.org/2000/svg"
   xmlns:sodipodi="http://sodipodi.sourceforge.net/DTD/sodipodi-0.dtd"
   xmlns:inkscape="http://www.inkscape.org/namespaces/inkscape"
   width="71.603981mm"
   height="59.60107mm"
   viewBox="0 0 71.603981 59.60107"
   version="1.1"
   id="svg56093"
   inkscape:version="0.92.4 (5da689c313, 2019-01-14)"
   sodipodi:docname="logo.svg">
  <defs
     id="defs56087">
    <clipPath
       clipPathUnits="userSpaceOnUse"
       id="clipPath38063">
      <path
         d="M 0,841.89 H 595.276 V 0 H 0 Z"
         id="path38061"
         inkscape:connector-curvature="0" />
    </clipPath>
  </defs>
  <sodipodi:namedview
     id="base"
     pagecolor="#ffffff"
     bordercolor="#666666"
     borderopacity="1.0"
     inkscape:pageopacity="0.0"
     inkscape:pageshadow="2"
     inkscape:zoom="1.4"
     inkscape:cx="168.97451"
     inkscape:cy="93.757931"
     inkscape:document-units="mm"
     inkscape:current-layer="layer1"
     showgrid="false"
     fit-margin-top="10"
     fit-margin-left="10"
     fit-margin-right="10"
     fit-margin-bottom="10"
     inkscape:window-width="1366"
     inkscape:window-height="706"
     inkscape:window-x="-8"
     inkscape:window-y="-8"
     inkscape:window-maximized="1" />
  <metadata
     id="metadata56090">
    <rdf:RDF>
      <cc:Work
         rdf:about="">
        <dc:format>image/svg+xml</dc:format>
        <dc:type
           rdf:resource="http://purl.org/dc/dcmitype/StillImage" />
        <dc:title></dc:title>
      </cc:Work>
    </rdf:RDF>
  </metadata>
  <g
     inkscape:label="Calque 1"
     inkscape:groupmode="layer"
     id="layer1"
     transform="translate(-38.281344,-37.389941)">
    <g
       id="g38053"
       transform="matrix(0.35277777,0,0,-0.35277777,48.281344,86.99101)">
      <path
         d="M 0,0 H 146.279 V 112.255 H 0 V 91.924 h 3.958 v 16.374 H 142.322 V 3.958 H 3.958 V 20.23 H 0 Z"
         style="fill:#b83899;fill-opacity:1;fill-rule:nonzero;stroke:none"
         id="path38055"
         inkscape:connector-curvature="0" />
    </g>
    <g
       transform="matrix(0.35277777,0,0,-0.35277777,40.277169,299.95427)"
       id="g38057">
      <g
         id="g38059"
         clip-path="url(#clipPath38063)">
        <g
           id="g38065"
           transform="translate(39.2691,648.0109)">
          <path
             d="m 0,0 c 0,-4.634 -1.381,-6.984 -4.104,-6.984 -3.479,0 -3.948,3.53 -3.948,6.984 v 23.663 c 0,3.453 0.469,6.983 3.948,6.983 2.723,0 4.104,-2.349 4.104,-6.983 z m -4.026,37.695 c -8.213,0 -12.554,-5.041 -12.554,-14.577 V 0.467 c 0,-9.673 4.197,-14.578 12.476,-14.578 8.263,0 12.631,5.041 12.631,14.578 v 22.651 c 0,9.536 -4.34,14.577 -12.553,14.577"
             style="fill:#231f20;fill-opacity:1;fill-rule:nonzero;stroke:none"
             id="path38067"
             inkscape:connector-curvature="0" />
        </g>
        <g
           id="g38069"
           transform="translate(65.7203,633.9)">
          <path
             d="m 0,0 c 6.248,0 12.554,3.713 12.554,12.009 v 3.97 c 0,6.961 -5.728,11.236 -11.096,14.698 -3.631,2.269 -5.251,4.482 -5.251,7.175 v 1.479 c 0,3.601 1.276,5.426 3.793,5.426 1.836,0 4.026,-0.941 4.026,-5.426 v -3.369 h 8.528 v 2.434 c 0,9.149 -3.99,13.41 -12.554,13.41 -5.791,0 -12.554,-3.145 -12.554,-12.009 v -3.424 c 0,-5.828 4.847,-9.761 10.084,-13.143 3.143,-2.02 6.496,-4.527 6.496,-8.73 V 12.476 C 4.026,9.027 2.559,7.049 0,7.049 c -3.793,0 -3.793,3.943 -3.793,5.427 v 3.369 h -8.761 V 13.721 C -12.554,7.462 -10.376,0 0,0"
             style="fill:#231f20;fill-opacity:1;fill-rule:nonzero;stroke:none"
             id="path38071"
             inkscape:connector-curvature="0" />
        </g>
        <path
           d="m 83.926,634.679 h 8.528 v 50.249 h -8.528 z"
           style="fill:#231f20;fill-opacity:1;fill-rule:nonzero;stroke:none"
           id="path38073"
           inkscape:connector-curvature="0" />
        <g
           id="g38075"
           transform="translate(128.0367,634.6788)">
          <path
             d="m 0,0 -9.646,50.249 h -2.601 -5.928 -2.6 L -30.422,0 h 8.528 L -15.211,34.81 -8.528,0 Z"
             style="fill:#231f20;fill-opacity:1;fill-rule:nonzero;stroke:none"
             id="path38077"
             inkscape:connector-curvature="0" />
        </g>
      </g>
    </g>
  </g>
</svg>
